<svg width="48" height="37" viewBox="0 0 48 37" fill="none" xmlns="http://www.w3.org/2000/svg">
<path d="M40.634 3.31183C37.5747 1.90807 34.294 0.873839 30.8638 0.281492C30.8013 0.27006 30.7389 0.298629 30.7067 0.355769C30.2848 1.1062 29.8175 2.0852 29.4902 2.85468C25.8008 2.30235 22.1304 2.30235 18.5166 2.85468C18.1893 2.06809 17.705 1.1062 17.2811 0.355769C17.249 0.300536 17.1866 0.271966 17.1241 0.281492C13.6958 0.871946 10.4151 1.90618 7.35387 3.31183C7.32737 3.32326 7.30465 3.34232 7.28958 3.36707C1.06678 12.6638 -0.6379 21.732 0.19836 30.6878C0.202144 30.7316 0.22674 30.7735 0.260796 30.8001C4.36642 33.8152 8.34341 35.6457 12.2466 36.8589C12.309 36.878 12.3752 36.8551 12.415 36.8037C13.3383 35.5428 14.1613 34.2134 14.867 32.8153C14.9086 32.7334 14.8688 32.6363 14.7837 32.6039C13.4783 32.1087 12.2352 31.5049 11.0395 30.8192C10.9449 30.764 10.9373 30.6287 11.0243 30.5639C11.2759 30.3754 11.5276 30.1792 11.7679 29.9811C11.8114 29.9449 11.872 29.9373 11.9231 29.9602C19.7786 33.5467 28.2831 33.5467 36.0459 29.9602C36.097 29.9354 36.1576 29.943 36.203 29.9792C36.4433 30.1773 36.6949 30.3754 36.9484 30.5639C37.0354 30.6287 37.0298 30.764 36.9352 30.8192C35.7394 31.5182 34.4964 32.1087 33.189 32.602C33.1039 32.6344 33.0661 32.7334 33.1077 32.8153C33.8285 34.2114 34.6515 35.5409 35.5578 36.8018C35.5956 36.8551 35.6637 36.878 35.7262 36.8589C39.6483 35.6457 43.6252 33.8152 47.7309 30.8001C47.7668 30.7735 47.7895 30.7335 47.7933 30.6897C48.7942 20.3358 46.117 11.342 40.6964 3.36896C40.6832 3.34232 40.6605 3.32326 40.634 3.31183ZM16.04 25.2347C13.675 25.2347 11.7263 23.0634 11.7263 20.3968C11.7263 17.7302 13.6372 15.5589 16.04 15.5589C18.4617 15.5589 20.3916 17.7493 20.3538 20.3968C20.3538 23.0634 18.4428 25.2347 16.04 25.2347ZM31.9895 25.2347C29.6245 25.2347 27.6758 23.0634 27.6758 20.3968C27.6758 17.7302 29.5867 15.5589 31.9895 15.5589C34.4113 15.5589 36.3411 17.7493 36.3033 20.3968C36.3033 23.0634 34.4113 25.2347 31.9895 25.2347Z" fill="white"/>
</svg>
