<svg width="48" height="48" viewBox="0 0 48 48" fill="none" xmlns="http://www.w3.org/2000/svg">
<path d="M44.4469 0.000640869H3.54375C1.58437 0.000640869 0 1.54752 0 3.46002V44.5319C0 46.4444 1.58437 48.0006 3.54375 48.0006H44.4469C46.4062 48.0006 48 46.4444 48 44.5413V3.46002C48 1.54752 46.4062 0.000640869 44.4469 0.000640869ZM14.2406 40.9038H7.11563V17.9913H14.2406V40.9038ZM10.6781 14.8694C8.39062 14.8694 6.54375 13.0225 6.54375 10.7444C6.54375 8.46627 8.39062 6.61939 10.6781 6.61939C12.9563 6.61939 14.8031 8.46627 14.8031 10.7444C14.8031 13.0131 12.9563 14.8694 10.6781 14.8694ZM40.9031 40.9038H33.7875V29.7663C33.7875 27.1131 33.7406 23.6913 30.0844 23.6913C26.3812 23.6913 25.8187 26.5881 25.8187 29.5788V40.9038H18.7125V17.9913H25.5375V21.1225H25.6312C26.5781 19.3225 28.9031 17.4194 32.3625 17.4194C39.5719 17.4194 40.9031 22.1631 40.9031 28.3319V40.9038Z" fill="white"/>
</svg>
